<?xml version="1.0" encoding="utf-8"?>
<!-- Generator: Adobe Illustrator 23.0.3, SVG Export Plug-In . SVG Version: 6.00 Build 0)  -->
<svg version="1.1" id="레이어_1" xmlns="http://www.w3.org/2000/svg" xmlns:xlink="http://www.w3.org/1999/xlink" x="0px"
	 y="0px" viewBox="0 0 261 292" style="enable-background:new 0 0 261 292;" xml:space="preserve">
<style type="text/css">
	.st0{fill:none;}
	.st1{fill:#FFFFFF;}
	.st2{fill:#FCFCFC;}
	.st3{fill:#D8D8D8;}
</style>
<path class="st0" d="M147.22,287.89L252.2,176.66L8.47,244.92c4.77,3.08,9.82,5.99,15.04,8.92
	C55.86,272,104.09,286.75,147.22,287.89z"/>
<path class="st1" d="M146.86,162.69L69,143L8.12,123.69c-1.94,77.84,2.81,41.14,3.97,35.31c2.27-11.35-0.17-1.77,0.57-3.97
	c1.71-5.13,4.41-7.29,6.81-6.81c2.84,0.57,3.63,8.43,3.4,13.62c-1.09,25.12,0.01,29.87,3.97,29.51c6.24-0.57,5.67-10.21,6.81-13.05
	c3.63-9.06,8.59-10.38,12.48-8.51c15.32,7.38,1.72,50.28,15.32,51.64c11.35,1.13,12.89-31.87,13.05-32.91
	c1.13-7.38,3.81-14.3,11.35-13.62c7.94,2.27,10.47,34.85,17.92,34.14c5.75-0.55,7.85-14.08,12.15-18.81
	c5.67-6.24,18.82-2.44,20.12,10.66c4.97,50.01,9.58,65.62,11,61.01C149.85,252.79,145.45,174.32,146.86,162.69z"/>
<path class="st1" d="M26.07,134.52c-6.17-3.08-12.03-6.44-17.59-9.77c0,40.21,0,80.54,0,120.75c4.45,3.4,9.17,6.72,14.19,9.89
	c43.43,27.53,89.92,33.06,124.27,32.58c0-41.62,0-83.25,0-124.87C112.38,162.5,69.46,156.2,26.07,134.52z M144,259
	c-1.37,4.47-6.21-8.54-11-57c-1.25-12.69-10.53-15.05-16-9c-4.15,4.59-8.46,19.47-14,20c-7.18,0.69-10.34-30.8-18-33
	c-7.27-0.66-7.91,9.85-9,17c-0.15,1.01-4.06,28.1-15,27c-13.11-1.32-4-40-15-51c-3.54-3.54-7.21,0.53-11,10c-2,5-2,10-7,10
	c-7.97,0-7-5-7-18c0-5.03,0.74-24.45-2-25c-2.16-0.43-4,2-5,6c-1,6-2.01,9-3,14c-1.31,6.6-3.77,42.44-1.9-33l58.71,18.71
	l75.09,19.08C141.53,186.06,146.7,250.19,144,259z"/>
<path class="st1" d="M197.07,276.78"/>
<polygon class="st1" points="252.62,70.81 252.66,108.3 157.72,205.18 157.72,166.25 "/>
<polygon class="st1" points="252.48,123.72 252.51,161.2 157.57,258.09 157.57,219.16 "/>
<polygon class="st1" points="254,174 254,180 147,288 147,282 "/>
<path class="st2" d="M153.7,85.69C144.97,66.97,126.08,54,104.18,54C73.98,54,49.5,78.63,49.5,109.02c0,1.42,0.06,2.83,0.16,4.23
	L7.98,124.29c4.78,3.07,9.83,5.99,15.06,8.91c32.38,18.14,80.68,28.91,123.86,30.04L252,57L153.7,85.69z M127.1,86.09
	c-0.13,0.34-0.38,0.75-0.73,1.21c-0.36,0.47-0.89,1.03-1.58,1.7c-0.72,0.77-1.33,1.32-1.82,1.67c-0.49,0.35-0.9,0.55-1.25,0.61
	c-0.35,0.06-0.69,0-1.01-0.18c-0.33-0.18-0.69-0.44-1.08-0.77c-1.26-1.08-2.8-2.22-4.6-3.42c-1.81-1.19-3.84-2.12-6.1-2.8
	c-2.87-0.85-5.28-1.08-7.23-0.68c-1.96,0.4-3.22,1.55-3.79,3.45c-0.35,1.15-0.3,2.27,0.14,3.36c0.44,1.09,1.13,2.18,2.06,3.27
	c0.93,1.1,2.08,2.2,3.44,3.31c1.36,1.12,2.79,2.3,4.27,3.56c1.67,1.37,3.28,2.8,4.83,4.3c1.55,1.5,2.87,3.08,3.96,4.74
	c1.09,1.66,1.85,3.41,2.28,5.26c0.43,1.85,0.33,3.82-0.3,5.92c-0.72,2.4-1.93,4.5-3.61,6.29c-1.69,1.79-3.83,3.09-6.43,3.9
	c-2.79,0.91-6.19,1.1-10.19,0.57l-2.16,7.21c-0.23,0.75-0.71,1.22-1.45,1.41c-0.74,0.19-2.04,0.01-3.9-0.55
	c-1.91-0.57-3.13-1.13-3.64-1.7c-0.52-0.56-0.66-1.22-0.44-1.97l2.07-6.91c-1.48-0.55-2.92-1.18-4.32-1.9
	c-1.4-0.72-2.69-1.45-3.86-2.21c-1.17-0.76-2.2-1.49-3.08-2.18c-0.89-0.7-1.55-1.33-1.98-1.9c-0.45-0.51-0.63-1.11-0.53-1.79
	c0.09-0.68,0.77-1.73,2.02-3.16c1.31-1.46,2.27-2.31,2.86-2.54c0.59-0.23,1.26-0.05,2.01,0.56c0.71,0.54,1.56,1.15,2.54,1.82
	c0.98,0.67,2.02,1.34,3.14,2c1.12,0.66,2.26,1.27,3.43,1.84c1.17,0.57,2.29,1.01,3.34,1.32c3.72,1.11,6.77,1.44,9.15,1
	c2.38-0.44,3.92-1.83,4.63-4.19c0.51-1.7,0.12-3.32-1.17-4.85c-1.29-1.53-3.28-3.32-5.95-5.37c-1.84-1.53-3.73-3.14-5.66-4.83
	c-1.93-1.69-3.6-3.51-5.02-5.46c-1.42-1.95-2.44-4-3.08-6.15c-0.64-2.15-0.58-4.48,0.17-6.99c0.68-2.25,1.61-4.09,2.8-5.51
	c1.19-1.42,2.59-2.51,4.19-3.29c1.6-0.78,3.33-1.27,5.17-1.49c1.84-0.21,3.77-0.19,5.77,0.08l2.19-7.28l9.43,2.81l-2.1,6.98
	c2.44,1,4.69,2.26,6.76,3.77c2.06,1.51,3.73,3,4.98,4.47c0.24,0.29,0.41,0.56,0.5,0.8C127.25,85.45,127.23,85.75,127.1,86.09z"/>
<path class="st3" d="M-133,391.08"/>
</svg>
